<?xml version="1.0" encoding="UTF-8"?><svg id="Layer_2" xmlns="http://www.w3.org/2000/svg" viewBox="0 0 155.33 21.75"><defs><style>.cls-1{fill:#f1f2f2;}.cls-2{fill:#231f20;}</style></defs><g id="Layer_1-2"><rect class="cls-2" x="29.33" width="125.96" height="12.33"/><g><path class="cls-2" d="M5.5,12.62c-2.34,0-3.51-.77-3.51-2.3v-3.73c0-1.51,1.15-2.27,3.45-2.27h4.59c.38,0,.6,.17,.6,.49s-.22,.49-.6,.49H5.46c-1.45,0-2.18,.43-2.18,1.31v3.67c0,.9,.74,1.36,2.28,1.36h4.47c.38,0,.6,.17,.6,.49s-.22,.49-.6,.49H5.5Z"/><path class="cls-2" d="M16.21,12.62c-2.34,0-3.51-.77-3.51-2.3v-3.71c0-1.52,1.15-2.29,3.45-2.29h2.67c2.3,0,3.45,.77,3.45,2.29v3.71c0,1.54-1.18,2.3-3.51,2.3h-2.55Zm4.77-5.98c0-.89-.73-1.33-2.18-1.33h-2.63c-1.45,0-2.18,.44-2.18,1.33v3.65c0,.9,.73,1.36,2.21,1.36h2.58c1.48,0,2.21-.46,2.21-1.36v-3.65Z"/><path class="cls-1" d="M32.61,12.62c-2.34,0-3.51-.78-3.51-2.35V4.76c0-.34,.22-.5,.64-.5s.66,.17,.66,.5v5.47c0,.94,.74,1.4,2.28,1.4h4.97c.4,0,.6,.17,.6,.49s-.2,.49-.6,.49h-5.03Z"/><path class="cls-1" d="M43.32,12.62c-2.34,0-3.51-.77-3.51-2.3v-3.71c0-1.52,1.15-2.29,3.45-2.29h2.67c2.3,0,3.45,.77,3.45,2.29v3.71c0,1.54-1.18,2.3-3.51,2.3h-2.55Zm4.77-5.98c0-.89-.73-1.33-2.18-1.33h-2.63c-1.45,0-2.18,.44-2.18,1.33v3.65c0,.9,.73,1.36,2.21,1.36h2.58c1.48,0,2.21-.46,2.21-1.36v-3.65Z"/><path class="cls-1" d="M53.02,9.37v2.81c0,.34-.23,.5-.66,.5s-.64-.17-.64-.5V4.74c0-.28,.19-.42,.55-.42h5.64c2.48,0,3.73,.67,3.73,2.04v.89c0,1.33-1.25,2-3.73,2h-2.87l5.56,2.45c.25,.11,.36,.25,.36,.47,0,.31-.24,.52-.66,.52-.18,0-.26-.02-.46-.12l-6.84-3.19Zm0-1.03h4.93c1.61,0,2.4-.36,2.4-1.09v-.86c0-.72-.79-1.08-2.39-1.08h-4.85c-.06,0-.1,.02-.1,.08v2.95Z"/><path class="cls-1" d="M68.84,12.62c-.37,0-.58-.14-.58-.42V4.74c0-.28,.19-.42,.55-.42h5.64c2.48,0,3.73,.77,3.73,2.31v3.67c0,1.55-1.25,2.31-3.73,2.31h-5.61Zm8.05-5.95c0-.91-.79-1.37-2.39-1.37h-4.85c-.06,0-.1,.02-.1,.07v6.19s.04,.07,.1,.07h4.83c1.61,0,2.4-.46,2.4-1.37v-3.6Z"/><path class="cls-1" d="M83.98,12.62c-2.34,0-3.51-.77-3.51-2.3v-3.73c0-1.51,1.15-2.27,3.45-2.27h1.71c.4,0,.6,.17,.6,.49s-.2,.49-.6,.49h-1.69c-1.45,0-2.18,.43-2.18,1.31v1.36h7.15c.38,0,.58,.16,.58,.47s-.19,.47-.58,.47h-7.15v1.38c0,.9,.74,1.36,2.28,1.36h4.87c.41,0,.61,.17,.61,.49s-.2,.49-.61,.49h-4.93Z"/><path class="cls-1" d="M100.49,10.71c0,1.27-1.22,1.91-3.65,1.91h-4.87c-.4,0-.61-.17-.61-.49s.22-.49,.61-.49h4.87c1.56,0,2.34-.34,2.34-1v-.85c0-.65-.73-.97-2.22-.97h-2.27c-2.18,0-3.27-.6-3.27-1.78v-.88c0-1.22,1.13-1.85,3.36-1.85h1.34c.4,0,.6,.17,.6,.49s-.2,.49-.6,.49h-1.33c-1.38,0-2.07,.3-2.07,.91v.74c0,.6,.66,.89,1.97,.89h2.18c2.41,0,3.62,.64,3.62,1.9v.97Z"/><path class="cls-1" d="M102.54,4.76c0-.34,.23-.5,.67-.5,.41,0,.62,.17,.62,.5v7.41c0,.34-.23,.5-.66,.5s-.64-.17-.64-.5V4.76Z"/><path class="cls-1" d="M109.68,12.62c-2.34,0-3.51-.78-3.51-2.35v-3.72c0-1.49,1.15-2.23,3.45-2.23h1.64c.41,0,.61,.17,.61,.49s-.2,.49-.61,.49h-1.62c-1.45,0-2.18,.43-2.18,1.27v3.66c0,.94,.74,1.4,2.28,1.4h2.59c1.51,0,2.28-.47,2.28-1.4v-2.27c0-.34,.22-.5,.65-.5s.65,.17,.65,.5v2.3c0,1.57-1.19,2.35-3.51,2.35h-2.71Z"/><path class="cls-1" d="M119.55,4.52l7.23,6.38V4.75c0-.32,.22-.49,.65-.49s.65,.17,.65,.49v7.42c0,.34-.23,.5-.68,.5-.26,0-.43-.1-.63-.28l-7.22-6.38v6.15c0,.34-.23,.5-.66,.5s-.64-.17-.64-.5V4.78c0-.35,.23-.52,.67-.52,.25,0,.43,.08,.63,.26Z"/><path class="cls-1" d="M133.94,12.62c-2.34,0-3.51-.77-3.51-2.3v-3.73c0-1.51,1.15-2.27,3.45-2.27h1.71c.4,0,.6,.17,.6,.49s-.2,.49-.6,.49h-1.69c-1.45,0-2.18,.43-2.18,1.31v1.36h7.15c.38,0,.58,.16,.58,.47s-.19,.47-.58,.47h-7.15v1.38c0,.9,.74,1.36,2.28,1.36h4.87c.41,0,.61,.17,.61,.49s-.2,.49-.61,.49h-4.93Z"/><path class="cls-1" d="M142.91,9.37v2.81c0,.34-.23,.5-.66,.5s-.64-.17-.64-.5V4.74c0-.28,.19-.42,.55-.42h5.64c2.48,0,3.73,.67,3.73,2.04v.89c0,1.33-1.25,2-3.73,2h-2.87l5.56,2.45c.25,.11,.36,.25,.36,.47,0,.31-.24,.52-.66,.52-.18,0-.26-.02-.46-.12l-6.84-3.19Zm0-1.03h4.93c1.61,0,2.4-.36,2.4-1.09v-.86c0-.72-.79-1.08-2.39-1.08h-4.85c-.06,0-.1,.02-.1,.08v2.95Z"/></g><rect class="cls-2" y="15.36" width="25.12" height="5.12"/><g><path class="cls-2" d="M90.66,15.87h.42v4.26h-.42v-4.26Zm.29,0h2.39v.39h-2.39v-.39Zm0,1.99h2.07v.39h-2.07v-.39Z"/><path class="cls-2" d="M94.61,19.99c-.22-.12-.39-.3-.51-.54s-.18-.52-.18-.85v-1.21c0-.33,.06-.62,.18-.85s.29-.41,.51-.54,.49-.18,.81-.18,.59,.06,.81,.18,.39,.3,.51,.54,.18,.52,.18,.85v1.21c0,.33-.06,.62-.18,.85s-.29,.41-.51,.54-.49,.18-.81,.18-.59-.06-.81-.18Zm1.39-.34c.16-.09,.28-.22,.37-.4s.13-.38,.13-.63v-1.25c0-.24-.04-.45-.13-.63s-.21-.3-.37-.4-.35-.14-.58-.14-.42,.05-.58,.14-.28,.22-.37,.4-.13,.38-.13,.63v1.25c0,.24,.04,.45,.13,.63s.21,.3,.37,.4,.35,.14,.58,.14,.42-.05,.58-.14Z"/><path class="cls-2" d="M97.82,15.87h.42v4.26h-.42v-4.26Zm.26,2.07h1.45c.16,0,.3-.03,.42-.1s.21-.17,.28-.29,.1-.27,.1-.44c0-.17-.03-.31-.1-.44s-.16-.23-.28-.29-.26-.1-.42-.1h-1.45v-.39h1.43c.25,0,.46,.05,.65,.15s.33,.25,.43,.43,.15,.4,.15,.65-.05,.46-.15,.65-.25,.33-.44,.43-.4,.15-.65,.15h-1.43v-.39Zm1.37,.26l.39-.13,1.09,2.07h-.5l-.98-1.93Z"/><path class="cls-2" d="M103.35,15.87h.42v4.26h-.42v-4.26Zm.35,3.87h1.17c.36,0,.62-.07,.79-.2s.25-.33,.25-.57h0c0-.18-.03-.32-.09-.44s-.16-.21-.29-.28-.3-.1-.51-.1h-1.32v-.39h1.32c.28,0,.49-.06,.63-.18s.21-.31,.21-.55-.08-.44-.23-.57-.38-.19-.69-.19h-1.23v-.39h1.33c.28,0,.51,.05,.69,.14s.32,.23,.42,.4,.14,.38,.14,.62c0,.14-.03,.28-.08,.41s-.14,.24-.26,.33-.26,.15-.43,.18c.17,.03,.32,.09,.45,.18s.22,.22,.29,.36,.1,.3,.1,.47h0c0,.24-.05,.44-.15,.62s-.25,.31-.44,.41-.41,.14-.66,.14h-1.38v-.39Z"/><path class="cls-2" d="M107.73,19.99c-.22-.12-.39-.3-.51-.54s-.18-.52-.18-.85v-1.21c0-.33,.06-.62,.18-.85s.29-.41,.51-.54,.49-.18,.81-.18,.59,.06,.81,.18,.39,.3,.51,.54,.18,.52,.18,.85v1.21c0,.33-.06,.62-.18,.85s-.29,.41-.51,.54-.49,.18-.81,.18-.59-.06-.81-.18Zm1.39-.34c.16-.09,.28-.22,.37-.4s.13-.38,.13-.63v-1.25c0-.24-.04-.45-.13-.63s-.21-.3-.37-.4-.35-.14-.58-.14-.42,.05-.58,.14-.28,.22-.37,.4-.13,.38-.13,.63v1.25c0,.24,.04,.45,.13,.63s.21,.3,.37,.4,.35,.14,.58,.14,.42-.05,.58-.14Z"/><path class="cls-2" d="M111.49,20c-.22-.12-.39-.29-.5-.52s-.17-.52-.17-.87v-2.75h.42v2.77c0,.37,.09,.65,.27,.84s.45,.28,.81,.28,.63-.09,.81-.28,.27-.47,.27-.84v-2.77h.42v2.75c0,.35-.06,.64-.17,.87s-.28,.4-.5,.52-.5,.17-.83,.17-.61-.06-.83-.17Z"/><path class="cls-2" d="M114.76,15.87h.42v4.26h-.42v-4.26Zm.3,3.87h2.44v.39h-2.44v-.39Z"/><path class="cls-2" d="M118.2,15.87h.42v4.26h-.42v-4.26Zm.4,3.87h.96c.39,0,.69-.09,.89-.28s.29-.46,.29-.83v-1.25c0-.37-.1-.65-.29-.83s-.49-.28-.89-.28h-.96v-.39h.95c.36,0,.66,.06,.9,.17s.42,.28,.54,.51,.18,.51,.18,.85v1.21c0,.34-.06,.62-.18,.85s-.3,.4-.54,.51-.54,.17-.9,.17h-.94v-.39Z"/><path class="cls-2" d="M122.08,15.87h.42v4.26h-.42v-4.26Zm.29,0h2.45v.39h-2.45v-.39Zm0,1.95h2.12v.39h-2.12v-.39Zm0,1.92h2.45v.39h-2.45v-.39Z"/><path class="cls-2" d="M125.67,15.87h.42v4.26h-.42v-4.26Zm.26,2.07h1.45c.16,0,.3-.03,.42-.1s.21-.17,.28-.29,.1-.27,.1-.44c0-.17-.03-.31-.1-.44s-.16-.23-.28-.29-.26-.1-.42-.1h-1.45v-.39h1.43c.25,0,.46,.05,.65,.15s.33,.25,.43,.43,.15,.4,.15,.65-.05,.46-.15,.65-.25,.33-.43,.43-.4,.15-.65,.15h-1.43v-.39Zm1.37,.26l.39-.13,1.09,2.07h-.5l-.98-1.93Z"/><path class="cls-2" d="M130.09,20.13h-.42v-4.26h.42v4.26Z"/><path class="cls-2" d="M131.23,15.87h.42l2.47,3.84-.17-.12v-3.72h.42v4.26h-.43l-2.52-3.87,.23,.17v3.7h-.42v-4.26Z"/><path class="cls-2" d="M138.34,17.95v.63c0,.36-.06,.65-.17,.89s-.28,.41-.5,.53-.5,.18-.83,.18-.62-.06-.84-.17-.39-.28-.5-.5-.17-.5-.17-.83v-1.26c0-.36,.05-.65,.17-.89s.28-.41,.5-.53,.5-.18,.83-.18c.28,0,.51,.05,.71,.14s.36,.23,.49,.42,.22,.42,.27,.7h-.46c-.05-.2-.12-.36-.21-.49s-.2-.23-.34-.29-.29-.1-.47-.1c-.24,0-.44,.04-.59,.13s-.28,.22-.36,.4-.12,.4-.12,.67v1.26c0,.25,.04,.45,.12,.62s.2,.29,.36,.37,.36,.12,.61,.12,.43-.04,.58-.13,.27-.21,.35-.39,.12-.4,.12-.68v-.24h-1.03v-.39h1.48Z"/><path class="cls-2" d="M140.92,15.87h.42v4.26h-.42v-4.26Zm.31,2.21h1.36c.17,0,.31-.04,.44-.11s.22-.18,.29-.32c.07-.14,.1-.29,.1-.47s-.04-.34-.1-.48c-.07-.14-.17-.24-.29-.32s-.27-.11-.44-.11h-1.36v-.39h1.34c.25,0,.48,.05,.67,.16s.34,.26,.45,.46,.16,.43,.16,.69-.05,.48-.16,.68-.26,.35-.45,.46-.42,.16-.67,.16h-1.34v-.39Z"/><path class="cls-2" d="M145.55,15.87h.51l1.57,4.26h-.47l-1.36-3.82-1.36,3.82h-.47l1.57-4.26Zm-.85,2.83h2.24v.39h-2.24v-.39Z"/><path class="cls-2" d="M148.28,15.87h.42v4.26h-.42v-4.26Zm.4,3.87h.96c.39,0,.69-.09,.89-.28,.2-.18,.29-.46,.29-.83v-1.25c0-.37-.1-.65-.29-.83-.2-.18-.49-.28-.89-.28h-.96v-.39h.95c.36,0,.66,.06,.9,.17s.42,.28,.54,.51,.18,.51,.18,.85v1.21c0,.34-.06,.62-.18,.85-.12,.23-.3,.4-.54,.51s-.54,.17-.9,.17h-.94v-.39Z"/><path class="cls-2" d="M152.79,20.11c-.18-.04-.36-.1-.51-.18-.16-.08-.31-.18-.45-.29l.25-.33c.18,.16,.37,.27,.59,.35s.45,.12,.7,.12c.37,0,.65-.07,.85-.22,.2-.14,.3-.35,.3-.61h0c0-.17-.04-.29-.13-.39-.09-.1-.2-.17-.34-.22-.14-.05-.31-.09-.53-.13,0,0-.01,0-.02,0s-.01,0-.02,0l-.08-.02c-.3-.06-.54-.12-.72-.18s-.33-.17-.46-.31c-.12-.15-.19-.35-.19-.61h0c0-.27,.06-.49,.18-.68s.29-.33,.52-.43,.5-.15,.82-.15c.15,0,.3,.02,.45,.05s.29,.08,.44,.15c.14,.07,.29,.15,.43,.25l-.25,.33c-.18-.13-.36-.23-.54-.29s-.35-.1-.52-.1c-.35,0-.62,.07-.81,.22s-.29,.35-.29,.62h0c0,.16,.05,.29,.14,.38s.21,.16,.36,.21,.34,.09,.58,.14c0,0,.02,0,.03,0,0,0,.02,0,.03,0,.01,0,.02,0,.03,0s.02,0,.03,0c.27,.05,.49,.12,.67,.19s.33,.18,.44,.33c.12,.15,.18,.35,.18,.6h0c0,.27-.06,.49-.18,.67s-.3,.33-.54,.42-.51,.15-.84,.15c-.21,0-.4-.02-.58-.06Z"/></g><rect class="cls-2" x="29.33" y="2.21" width="126" height="2.53"/></g></svg>